<?xml version="1.0" encoding="UTF-8"?><svg id="a" xmlns="http://www.w3.org/2000/svg" viewBox="0 0 100 100"><defs><style>.b{fill:#333;}.c{fill:#4078ff;}</style></defs><path class="c" d="M79.5,14.91h-28.66c-1.22,0-2.21,.99-2.21,2.21v26.11l6.01-5.06h24.86c1.22,0,2.21-.99,2.21-2.21V17.12c0-1.22-.99-2.21-2.21-2.21Zm-17.3,18.38h-5.51c-.73,0-1.32-.59-1.32-1.32s.59-1.32,1.32-1.32h5.51c.73,0,1.32,.59,1.32,1.32s-.59,1.32-1.32,1.32Zm7.95,0h-2.71c-.73,0-1.32-.59-1.32-1.32s.59-1.32,1.32-1.32h2.71c.73,0,1.32,.59,1.32,1.32s-.59,1.32-1.32,1.32Zm3.5-5.81h-16.96c-.73,0-1.32-.59-1.32-1.32s.59-1.32,1.32-1.32h16.96c.73,0,1.32,.59,1.32,1.32s-.59,1.32-1.32,1.32Zm0-5.81h-16.96c-.73,0-1.32-.59-1.32-1.32s.59-1.32,1.32-1.32h16.96c.73,0,1.32,.59,1.32,1.32s-.59,1.32-1.32,1.32Z"/><path class="b" d="M90.42,72.37h-2V26.9c0-1.75-1.43-3.18-3.18-3.18v-2c2.86,0,5.18,2.32,5.18,5.18v45.47Z"/><path class="b" d="M11.58,72.37h-2V26.9c0-2.86,2.32-5.18,5.18-5.18h29.38v2H14.76c-1.75,0-3.18,1.43-3.18,3.18v45.47Z"/><path class="b" d="M50,86.09c-16.43,0-32.85,0-38.63-.01-1.88,0-3.4-1.53-3.4-3.41v-5.18c0-1.47,1.2-2.67,2.67-2.68l17.5-.07c1.4,0,2.72,.54,3.72,1.52l1.94,1.9c.42,.41,.98,.64,1.56,.64h29.28c.59,0,1.14-.23,1.56-.64l1.94-1.9c1-.98,2.32-1.52,3.72-1.52l17.51,.07c1.47,0,2.67,1.21,2.67,2.68v5.18c0,1.88-1.53,3.41-3.4,3.41-5.78,0-22.2,.01-38.63,.01Zm-21.85-9.35l-17.5,.07c-.37,0-.67,.31-.67,.68v5.18c0,.78,.63,1.41,1.4,1.41,11.55,.02,65.7,.02,77.25,0,.78,0,1.41-.64,1.41-1.41v-5.18c0-.37-.3-.68-.67-.68l-17.5-.07c-.87,0-1.69,.34-2.31,.95l-1.94,1.91c-.8,.78-1.85,1.21-2.97,1.21h-29.28c-1.12,0-2.17-.43-2.97-1.21l-1.94-1.91c-.62-.61-1.44-.95-2.31-.95Z"/><g><path class="b" d="M35.25,52.96c-4.06,0-7.36-3.3-7.36-7.36v-4.75c0-4.06,3.3-7.36,7.36-7.36s7.36,3.3,7.36,7.36v4.75c0,4.06-3.3,7.36-7.36,7.36Zm0-17.47c-2.96,0-5.36,2.41-5.36,5.36v4.75c0,2.96,2.41,5.36,5.36,5.36s5.36-2.41,5.36-5.36v-4.75c0-2.96-2.41-5.36-5.36-5.36Z"/><g><path class="b" d="M51,66.86h-2v-4.32c0-1.23-.78-2.33-1.95-2.73l-5.82-1.99c-1.98-.67-3.3-2.53-3.3-4.62v-1.98h2v1.98c0,1.23,.78,2.33,1.95,2.73l5.82,1.99c1.98,.67,3.3,2.53,3.3,4.62v4.32Z"/><path class="b" d="M21.5,66.86h-2v-4.32c0-2.09,1.33-3.94,3.3-4.62l5.82-1.99c1.17-.4,1.95-1.49,1.95-2.73v-1.98h2v1.98c0,2.09-1.33,3.94-3.3,4.62l-5.82,1.99c-1.17,.4-1.95,1.49-1.95,2.73v4.32Z"/></g></g><path class="b" d="M47.63,45.38V17.12c0-1.77,1.44-3.21,3.21-3.21h28.66c1.77,0,3.21,1.44,3.21,3.21v18.83c0,1.77-1.44,3.21-3.21,3.21h-24.5l-7.38,6.21Zm3.21-29.47c-.67,0-1.21,.54-1.21,1.21v23.96l4.65-3.91h25.23c.67,0,1.21-.54,1.21-1.21V17.12c0-.67-.54-1.21-1.21-1.21h-28.66Z"/><rect class="c" x="57.37" y="48.26" width="21.5" height="2"/><rect class="c" x="57.37" y="55.24" width="21.5" height="2"/><rect class="c" x="57.37" y="62.23" width="10.75" height="2"/></svg>