<?xml version="1.0" encoding="UTF-8"?><svg id="a" xmlns="http://www.w3.org/2000/svg" viewBox="0 0 100 100"><defs><style>.b{fill:#333;}.c{fill:#4078ff;}</style></defs><path class="c" d="M29.6,72.32v9.4c0,1.86,1.5,3.36,3.36,3.36h34.71c1.86,0,3.36-1.5,3.36-3.36v-9.4H29.6Zm20.71,9.46c-1.8,0-3.27-1.46-3.27-3.27s1.46-3.27,3.27-3.27,3.27,1.46,3.27,3.27-1.46,3.27-3.27,3.27Z"/><rect class="b" x="51.48" y="35.05" width="4.69" height="2"/><rect class="b" x="58.85" y="35.05" width="8.09" height="2"/><rect class="b" x="51.48" y="42.94" width="8.86" height="2"/><rect class="b" x="63.03" y="42.94" width="3.92" height="2"/><rect class="b" x="51.48" y="50.24" width="4.69" height="2"/><rect class="b" x="58.85" y="50.24" width="8.09" height="2"/><path class="b" d="M67.66,86.09H32.96c-2.4,0-4.36-1.96-4.36-4.36v-14.87h2v14.87c0,1.3,1.06,2.36,2.36,2.36h34.7c1.3,0,2.36-1.06,2.36-2.36V18.27c0-1.3-1.06-2.36-2.36-2.36H32.96c-1.3,0-2.36,1.06-2.36,2.36v7.69h-2v-7.69c0-2.4,1.96-4.36,4.36-4.36h34.7c2.4,0,4.36,1.96,4.36,4.36v63.46c0,2.4-1.96,4.36-4.36,4.36Z"/><path class="b" d="M67.66,86.09H32.96c-2.4,0-4.36-1.96-4.36-4.36v-10.4h43.43v10.4c0,2.4-1.96,4.36-4.36,4.36Zm-37.07-12.76v8.4c0,1.3,1.06,2.36,2.36,2.36h34.71c1.3,0,2.36-1.06,2.36-2.36v-8.4H30.59Z"/><rect class="b" x="43.33" y="20.55" width="13.97" height="2"/><path class="b" d="M44.42,64.29H14.77c-1.68,0-3.05-1.37-3.05-3.05V31.58c0-1.68,1.37-3.05,3.05-3.05h29.66c1.68,0,3.05,1.37,3.05,3.05v29.66c0,1.68-1.37,3.05-3.05,3.05ZM14.77,30.54c-.58,0-1.05,.47-1.05,1.05v29.66c0,.58,.47,1.05,1.05,1.05h29.66c.58,0,1.05-.47,1.05-1.05V31.58c0-.58-.47-1.05-1.05-1.05H14.77Z"/><g><g><path class="c" d="M27.82,44.84h-10.04v-10.04h10.04v10.04Zm-8.04-2h6.04v-6.04h-6.04v6.04Z"/><path class="b" d="M41.42,44.84h-10.04v-10.04h10.04v10.04Zm-8.04-2h6.04v-6.04h-6.04v6.04Z"/></g><g><path class="b" d="M27.82,58.03h-10.04v-10.04h10.04v10.04Zm-8.04-2h6.04v-6.04h-6.04v6.04Z"/><path class="c" d="M41.42,58.03h-10.04v-10.04h10.04v10.04Zm-8.04-2h6.04v-6.04h-6.04v6.04Z"/></g></g><path class="b" d="M85.23,58.37h-2v-5.53c0-.33-.27-.59-.59-.59h-8.27v-2h8.27c1.43,0,2.59,1.16,2.59,2.59v5.53Z"/><path class="b" d="M84.23,65.71c-2.23,0-4.05-1.82-4.05-4.05s1.82-4.05,4.05-4.05,4.05,1.82,4.05,4.05-1.82,4.05-4.05,4.05Zm0-6.11c-1.13,0-2.05,.92-2.05,2.05s.92,2.05,2.05,2.05,2.05-.92,2.05-2.05-.92-2.05-2.05-2.05Z"/><rect class="b" x="19.06" y="70.18" width="5.69" height="2"/><path class="b" d="M15.77,75.24c-2.24,0-4.05-1.82-4.05-4.05s1.82-4.05,4.05-4.05,4.05,1.82,4.05,4.05-1.82,4.05-4.05,4.05Zm0-6.11c-1.13,0-2.05,.92-2.05,2.05s.92,2.05,2.05,2.05,2.05-.92,2.05-2.05-.92-2.05-2.05-2.05Z"/><path class="b" d="M79.03,43.3h-4.66v-2h4.66c.18,0,.32-.14,.32-.32v-5.41h2v5.41c0,1.28-1.04,2.32-2.32,2.32Z"/><path class="b" d="M80.34,36.33c-2.23,0-4.05-1.82-4.05-4.05s1.82-4.05,4.05-4.05,4.05,1.82,4.05,4.05-1.82,4.05-4.05,4.05Zm0-6.11c-1.13,0-2.05,.92-2.05,2.05s.92,2.05,2.05,2.05,2.05-.92,2.05-2.05-.92-2.05-2.05-2.05Z"/></svg>