<?xml version="1.0" encoding="UTF-8"?><svg id="a" xmlns="http://www.w3.org/2000/svg" viewBox="0 0 100 100"><defs><style>.b{fill:#333;}.c{fill:#4078ff;}</style></defs><path class="b" d="M31.73,86.09h-10.47v-2.71c0-1.9-1-3.64-2.6-4.54-.12-.07-.24-.14-.36-.21-1.6-.95-3.61-.95-5.26,0l-2.34,1.35-5.24-9.07,2.33-1.35c1.62-.94,2.63-2.75,2.63-4.71,0-2.05-1-3.86-2.63-4.79l-2.33-1.35,5.24-9.07,2.34,1.35c1.64,.95,3.66,.95,5.26,0,.12-.07,.24-.14,.36-.21,1.6-.9,2.6-2.64,2.6-4.53v-2.71h10.47v2.71c0,1.9,1,3.64,2.61,4.54,.12,.07,.24,.14,.36,.21,1.6,.95,3.62,.95,5.26,0l2.34-1.35,5.24,9.07-2.33,1.35c-1.62,.94-2.63,2.75-2.63,4.71v.08c0,1.97,1,3.78,2.63,4.72l2.33,1.35-5.24,9.07-2.34-1.35c-1.64-.95-3.66-.95-5.26,0-.12,.07-.24,.14-.36,.21-1.61,.9-2.61,2.64-2.61,4.54v2.71Zm-8.47-2h6.47v-.71c0-2.62,1.39-5.03,3.63-6.28l.31-.18c2.22-1.32,5.02-1.33,7.28-.02l.61,.35,3.24-5.61-.6-.35c-2.24-1.3-3.63-3.77-3.63-6.45l1-.03-1-.04c0-2.68,1.38-5.15,3.63-6.45l.6-.35-3.24-5.61-.61,.35c-2.27,1.31-5.06,1.3-7.28-.02-.1-.06-.21-.12-.31-.18-2.24-1.26-3.63-3.66-3.63-6.28v-.71h-6.47v.71c0,2.62-1.39,5.03-3.63,6.28-.11,.06-.21,.12-.31,.18-2.23,1.33-5.02,1.33-7.29,.02l-.61-.35-3.24,5.61,.6,.35c2.24,1.3,3.63,3.77,3.63,6.45,0,2.75-1.38,5.23-3.63,6.52l-.6,.35,3.24,5.61,.61-.35c2.27-1.31,5.06-1.3,7.28,.02,.11,.06,.21,.12,.31,.18,2.24,1.25,3.63,3.66,3.63,6.28v.71Z"/><g><path class="c" d="M52.95,37.51v13.54h38.74v-13.54H52.95Zm11.48,10.25c-1.93,0-3.49-1.56-3.49-3.49s1.56-3.49,3.49-3.49,3.49,1.56,3.49,3.49-1.56,3.49-3.49,3.49Zm15.78,0c-1.93,0-3.49-1.56-3.49-3.49s1.56-3.49,3.49-3.49,3.49,1.56,3.49,3.49-1.56,3.49-3.49,3.49Z"/><path class="b" d="M87.73,66.14h-30.81c-2.74,0-4.96-2.23-4.96-4.96v-26.94c0-2.74,2.23-4.96,4.96-4.96h30.81c2.74,0,4.96,2.23,4.96,4.96v26.94c0,2.74-2.23,4.96-4.96,4.96ZM56.92,31.27c-1.63,0-2.96,1.33-2.96,2.96v26.94c0,1.63,1.33,2.96,2.96,2.96h30.81c1.63,0,2.96-1.33,2.96-2.96v-26.94c0-1.63-1.33-2.96-2.96-2.96h-30.81Z"/><rect class="b" x="71.32" y="24.43" width="2" height="3.73"/><path class="b" d="M72.32,25.43c-3.18,0-5.76-2.58-5.76-5.76s2.58-5.76,5.76-5.76,5.76,2.58,5.76,5.76-2.58,5.76-5.76,5.76Zm0-9.52c-2.07,0-3.76,1.69-3.76,3.76s1.69,3.76,3.76,3.76,3.76-1.69,3.76-3.76-1.69-3.76-3.76-3.76Z"/><path class="b" d="M92.69,52.04H51.95v-15.54h40.74v15.54Zm-38.74-2h36.74v-11.54H53.95v11.54Z"/><rect class="b" x="66.5" y="56.59" width="11.63" height="2"/></g><g><g><polygon class="b" points="19.45 70.28 13.98 64.81 19.45 59.35 20.86 60.76 16.81 64.81 20.86 68.87 19.45 70.28"/><polygon class="b" points="33.54 70.28 32.12 68.87 36.18 64.81 32.12 60.76 33.54 59.35 39 64.81 33.54 70.28"/></g><rect class="b" x="18" y="63.81" width="16.98" height="2" transform="translate(-43.52 65.37) rotate(-68.22)"/></g><g><rect class="c" x="54.44" y="20.69" width="4.36" height="2"/><rect class="c" x="46.58" y="20.69" width="4.36" height="2"/><rect class="c" x="38.72" y="20.69" width="4.36" height="2"/><rect class="c" x="30.86" y="20.69" width="4.36" height="2"/><rect class="c" x="25.49" y="36.43" width="2" height="4.36"/><rect class="c" x="25.49" y="28.57" width="2" height="4.36"/><rect class="c" x="25.49" y="20.71" width="2" height="4.36"/></g><g><rect class="c" x="47.9" y="79.24" width="4.36" height="2"/><rect class="c" x="55.76" y="79.24" width="4.36" height="2"/><rect class="c" x="63.62" y="79.24" width="4.36" height="2"/><rect class="c" x="71.35" y="69" width="2" height="4.36"/><rect class="c" x="71.35" y="76.86" width="2" height="4.36"/></g></svg>