<?xml version="1.0" encoding="UTF-8"?><svg id="a" xmlns="http://www.w3.org/2000/svg" viewBox="0 0 100 100"><defs><style>.b{fill:#333;}.c{fill:#4078ff;}</style></defs><g><g><path class="b" d="M54.93,69.83h-9.87v-2.58c0-1.74-.91-3.33-2.38-4.15-.11-.06-.23-.13-.34-.19-1.46-.87-3.31-.87-4.81,0l-2.24,1.29-4.93-8.55,2.23-1.29c1.49-.86,2.41-2.51,2.4-4.32,0-1.88-.92-3.53-2.4-4.39l-2.23-1.29,4.93-8.55,2.24,1.29c1.5,.87,3.35,.87,4.81,0l.33-.19c1.47-.83,2.39-2.42,2.39-4.15v-2.58h9.87v2.58c0,1.74,.91,3.33,2.38,4.15l.34,.2c1.46,.87,3.31,.87,4.81,0l2.24-1.29,4.93,8.55-2.23,1.29c-1.49,.86-2.41,2.51-2.4,4.32v.07c0,1.81,.92,3.46,2.4,4.32l2.23,1.29-4.93,8.54-2.24-1.29c-1.5-.87-3.35-.87-4.81,0-.11,.06-.22,.13-.33,.19-1.47,.82-2.38,2.42-2.38,4.15v2.58Zm-7.87-2h5.87v-.58c0-2.46,1.3-4.72,3.41-5.89l.29-.17c2.09-1.24,4.71-1.25,6.84-.02l.51,.29,2.93-5.08-.5-.29c-2.11-1.22-3.41-3.54-3.4-6.05l1-.03-1-.03c0-2.52,1.3-4.84,3.4-6.05l.5-.29-2.93-5.08-.51,.29c-2.13,1.23-4.75,1.22-6.83-.02l-.29-.17c-2.1-1.18-3.4-3.43-3.4-5.89v-.58h-5.87v.58c0,2.46-1.3,4.72-3.41,5.9l-.29,.17c-2.09,1.24-4.71,1.25-6.84,.02l-.51-.29-2.93,5.08,.5,.29c2.11,1.22,3.41,3.53,3.4,6.05,0,2.58-1.3,4.9-3.4,6.12l-.5,.29,2.93,5.08,.51-.29c2.13-1.23,4.75-1.22,6.84,.02l.29,.17c2.1,1.18,3.41,3.44,3.41,5.89v.58Z"/><g><circle class="c" cx="50" cy="50" r="8.36"/><path class="b" d="M50.01,59.36c-.27,0-.55-.01-.82-.04-5.14-.45-8.96-5-8.51-10.14,.22-2.49,1.39-4.75,3.31-6.35,1.92-1.61,4.33-2.37,6.83-2.15,5.14,.45,8.96,5,8.51,10.14-.43,4.86-4.52,8.54-9.31,8.54Zm-.02-16.71c-1.72,0-3.38,.6-4.72,1.72-1.51,1.26-2.43,3.04-2.6,4.99-.17,1.96,.43,3.86,1.69,5.37,1.26,1.51,3.04,2.43,4.99,2.6,1.96,.17,3.87-.43,5.37-1.69,1.51-1.26,2.43-3.04,2.6-4.99,.35-4.04-2.65-7.62-6.69-7.97-.22-.02-.44-.03-.65-.03Z"/></g><path class="c" d="M33.07,34.73l-1.48-1.34c1.16-1.29,2.47-2.46,3.87-3.47l1.17,1.62c-1.29,.94-2.49,2.01-3.56,3.19Zm7.7-5.58l-.81-1.83c1.59-.7,3.25-1.24,4.95-1.6l.41,1.96c-1.56,.33-3.09,.82-4.55,1.47Z"/><path class="c" d="M26.4,57.64c-.53-1.65-.89-3.36-1.07-5.09l1.99-.21c.16,1.59,.5,3.16,.99,4.68l-1.9,.62Zm.92-10.08l-1.99-.21c.18-1.73,.55-3.44,1.09-5.08l1.9,.62c-.5,1.52-.83,3.09-1,4.67Z"/><path class="c" d="M44.82,74.26c-1.7-.36-3.36-.91-4.94-1.61l.82-1.83c1.46,.65,2.99,1.15,4.55,1.49l-.42,1.96Zm-9.44-4.22c-1.4-1.02-2.7-2.19-3.86-3.49l1.49-1.33c1.06,1.19,2.26,2.27,3.54,3.2l-1.18,1.62Z"/><path class="c" d="M55.1,74.28l-.41-1.96c1.56-.33,3.09-.82,4.55-1.47l.81,1.83c-1.59,.7-3.25,1.24-4.95,1.6Zm9.45-4.19l-1.17-1.62c1.29-.93,2.49-2.01,3.56-3.2l1.48,1.34c-1.17,1.29-2.47,2.46-3.87,3.47Z"/><path class="c" d="M73.58,57.73l-1.9-.62c.5-1.52,.83-3.09,1-4.67l1.99,.21c-.18,1.73-.55,3.44-1.09,5.09Zm-.89-10.08c-.16-1.59-.5-3.16-.99-4.68l1.9-.62c.53,1.65,.89,3.36,1.07,5.09l-1.99,.21Z"/><path class="c" d="M66.99,34.78c-1.06-1.19-2.25-2.26-3.54-3.2l1.18-1.62c1.41,1.02,2.7,2.2,3.86,3.49l-1.49,1.33Zm-7.68-5.6c-1.46-.65-2.99-1.15-4.55-1.48l.42-1.96c1.7,.36,3.36,.91,4.94,1.61l-.81,1.83Z"/></g><g><rect class="b" x="49" y="20.63" width="2" height="6.31"/><path class="b" d="M50,21.94c-2.11,0-3.83-1.72-3.83-3.83s1.72-3.83,3.83-3.83,3.83,1.72,3.83,3.83-1.72,3.83-3.83,3.83Zm0-5.66c-1.01,0-1.83,.82-1.83,1.83s.82,1.83,1.83,1.83,1.83-.82,1.83-1.83-.82-1.83-1.83-1.83Z"/></g><g><rect class="b" x="26.3" y="33.74" width="2" height="6.31" transform="translate(-18.3 42.09) rotate(-60)"/><path class="b" d="M22.38,37.88c-.65,0-1.31-.17-1.91-.51-.89-.51-1.52-1.34-1.78-2.33s-.13-2.02,.38-2.91c1.06-1.83,3.4-2.46,5.23-1.4h0c1.83,1.06,2.46,3.4,1.4,5.23-.71,1.23-2,1.91-3.32,1.91Zm0-5.66c-.16,0-.32,.02-.48,.06-.47,.13-.87,.43-1.11,.85-.25,.42-.31,.92-.18,1.39,.13,.47,.43,.87,.85,1.11,.87,.5,2,.2,2.5-.67,.5-.87,.2-1.99-.67-2.5h0c-.28-.16-.59-.25-.91-.25Z"/></g><g><rect class="b" x="24.14" y="62.11" width="6.31" height="2" transform="translate(-27.89 22.1) rotate(-29.99)"/><path class="b" d="M22.39,69.77c-1.32,0-2.61-.69-3.32-1.91-.51-.89-.65-1.92-.38-2.91,.26-.99,.9-1.81,1.78-2.33h0c1.83-1.05,4.17-.43,5.23,1.4,.51,.89,.65,1.92,.38,2.91-.26,.99-.9,1.81-1.78,2.33-.6,.35-1.26,.51-1.91,.51Zm-.92-5.41h0c-.87,.5-1.17,1.63-.67,2.5,.24,.42,.64,.73,1.11,.85,.47,.13,.96,.06,1.39-.18,.42-.24,.73-.64,.85-1.11,.13-.47,.06-.97-.18-1.39-.5-.87-1.62-1.18-2.5-.67Z"/></g><g><rect class="b" x="49" y="73.05" width="2" height="6.31"/><path class="b" d="M50,85.72c-2.11,0-3.83-1.72-3.83-3.83s1.72-3.83,3.83-3.83,3.83,1.72,3.83,3.83-1.72,3.83-3.83,3.83Zm0-5.66c-1.01,0-1.83,.82-1.83,1.83s.82,1.83,1.83,1.83,1.83-.82,1.83-1.83-.82-1.83-1.83-1.83Z"/></g><g><rect class="b" x="71.7" y="59.95" width="2" height="6.31" transform="translate(-18.3 94.51) rotate(-60)"/><path class="b" d="M77.61,69.77c-.65,0-1.31-.17-1.91-.51-.89-.51-1.52-1.34-1.78-2.33-.27-.99-.13-2.02,.38-2.91,1.06-1.83,3.4-2.46,5.23-1.4,.89,.51,1.52,1.34,1.78,2.33,.26,.99,.13,2.02-.38,2.91-.71,1.23-2,1.91-3.32,1.91Zm0-5.66c-.63,0-1.25,.33-1.59,.92-.24,.42-.31,.92-.18,1.39,.13,.47,.43,.87,.85,1.11,.42,.25,.92,.31,1.39,.18,.47-.13,.87-.43,1.11-.85,.5-.87,.21-2-.67-2.5-.29-.17-.6-.25-.91-.25Z"/></g><g><rect class="b" x="69.54" y="35.89" width="6.31" height="2" transform="translate(-8.71 41.29) rotate(-29.99)"/><path class="b" d="M77.62,37.88c-1.32,0-2.61-.69-3.32-1.91-1.06-1.83-.43-4.18,1.4-5.23,1.83-1.06,4.17-.43,5.23,1.4,.51,.89,.65,1.92,.38,2.91s-.9,1.81-1.78,2.33c-.6,.35-1.26,.51-1.91,.51Zm0-5.66c-.32,0-.63,.08-.91,.25-.87,.5-1.17,1.63-.67,2.5s1.63,1.17,2.5,.67h0c.42-.24,.73-.64,.85-1.11,.13-.47,.06-.96-.18-1.39-.24-.42-.64-.73-1.11-.85-.16-.04-.32-.06-.48-.06Z"/></g></g><g><circle class="c" cx="50" cy="50" r="8.36"/><path class="b" d="M50.01,59.36c-.27,0-.55-.01-.82-.04-5.14-.45-8.96-5-8.51-10.14,.22-2.49,1.39-4.75,3.31-6.35,1.92-1.61,4.33-2.37,6.83-2.15,5.14,.45,8.96,5,8.51,10.14-.43,4.86-4.52,8.54-9.31,8.54Zm-.02-16.71c-1.72,0-3.38,.6-4.72,1.72-1.51,1.26-2.43,3.04-2.6,4.99-.17,1.96,.43,3.86,1.69,5.37,1.26,1.51,3.04,2.43,4.99,2.6,1.96,.17,3.87-.43,5.37-1.69,1.51-1.26,2.43-3.04,2.6-4.99,.35-4.04-2.65-7.62-6.69-7.97-.22-.02-.44-.03-.65-.03Z"/></g></svg>