<?xml version="1.0" encoding="UTF-8"?><svg id="a" xmlns="http://www.w3.org/2000/svg" viewBox="0 0 100 100"><defs><style>.b{fill:#333;}.c{fill:#4078ff;}</style></defs><path class="c" d="M76.73,51.48h-23.15c-1.37,0-2.47,1.11-2.47,2.47v23.15c0,1.37,1.11,2.47,2.47,2.47h23.15c1.37,0,2.47-1.11,2.47-2.47v-23.15c0-1.37-1.11-2.47-2.47-2.47Zm-14.34,21.18h-5.51c-.73,0-1.32-.59-1.32-1.32s.59-1.32,1.32-1.32h5.51c.73,0,1.32,.59,1.32,1.32s-.59,1.32-1.32,1.32Zm7.95,0h-2.71c-.73,0-1.32-.59-1.32-1.32s.59-1.32,1.32-1.32h2.71c.73,0,1.32,.59,1.32,1.32s-.59,1.32-1.32,1.32Zm3.08-5.81h-16.54c-.73,0-1.32-.59-1.32-1.32s.59-1.32,1.32-1.32h16.54c.73,0,1.32,.59,1.32,1.32s-.59,1.32-1.32,1.32Zm0-5.81h-16.54c-.73,0-1.32-.59-1.32-1.32s.59-1.32,1.32-1.32h16.54c.73,0,1.32,.59,1.32,1.32s-.59,1.32-1.32,1.32Z"/><path class="b" d="M80.89,86.09H18.7c-3.08,0-5.59-2.51-5.59-5.59V25.32c0-3.08,2.5-5.58,5.58-5.58h7.58v2h-7.58c-1.97,0-3.58,1.61-3.58,3.58v55.18c0,1.98,1.61,3.59,3.59,3.59h62.19c2.21,0,4-1.79,4-4V25.33c0-1.98-1.61-3.59-3.59-3.59h-7.57v-2h7.57c3.08,0,5.59,2.51,5.59,5.59v54.76c0,3.31-2.69,6-6,6Z"/><g><g><rect class="c" x="20.34" y="64.26" width="7.45" height="2"/><rect class="c" x="31.39" y="64.26" width="13.71" height="2"/></g><g><rect class="c" x="20.34" y="71.16" width="5.25" height="2"/><rect class="c" x="29.47" y="71.16" width="15.63" height="2"/></g><rect class="c" x="31.25" y="78.05" width="13.85" height="2"/><g><rect class="b" x="20.34" y="50.48" width="9.92" height="2"/><rect class="b" x="33.27" y="50.48" width="11.83" height="2"/></g><g><rect class="b" x="20.34" y="57.37" width="5.25" height="2"/><rect class="b" x="28.6" y="57.37" width="16.51" height="2"/></g></g><g><g><path class="b" d="M50,32.54c-3.89,0-7.06-3.17-7.06-7.05v-4.52c0-3.89,3.17-7.05,7.06-7.05s7.05,3.17,7.05,7.05v4.52c0,3.89-3.16,7.05-7.05,7.05Zm0-16.63c-2.79,0-5.06,2.27-5.06,5.05v4.52c0,2.79,2.27,5.05,5.06,5.05s5.05-2.27,5.05-5.05v-4.52c0-2.79-2.27-5.05-5.05-5.05Z"/><g><path class="b" d="M65.04,45.72h-2v-4.12c0-1.15-.73-2.18-1.82-2.55l-5.54-1.89c-1.9-.65-3.18-2.43-3.18-4.44v-1.89h2v1.89c0,1.15,.73,2.18,1.82,2.55l5.54,1.89c1.9,.65,3.18,2.43,3.18,4.44v4.12Z"/><path class="b" d="M36.96,45.72h-2v-4.12c0-2.01,1.28-3.79,3.18-4.44l5.54-1.89c1.09-.37,1.82-1.4,1.82-2.55v-1.89h2v1.89c0,2.01-1.28,3.79-3.18,4.44l-5.54,1.89c-1.09,.37-1.82,1.4-1.82,2.55v4.12Z"/></g></g><g><g><path class="b" d="M65.06,32.78c-3.12,0-5.66-2.54-5.66-5.66v-3.48c0-3.12,2.54-5.66,5.66-5.66s5.66,2.54,5.66,5.66v3.48c0,3.12-2.54,5.66-5.66,5.66Zm0-12.8c-2.02,0-3.66,1.64-3.66,3.66v3.48c0,2.02,1.64,3.66,3.66,3.66s3.66-1.64,3.66-3.66v-3.48c0-2.02-1.64-3.66-3.66-3.66Z"/><path class="b" d="M76.87,42.69h-2v-3.17c0-.79-.5-1.49-1.25-1.74l-4.27-1.46c-1.56-.53-2.6-1.99-2.6-3.64v-1.45h2v1.45c0,.79,.5,1.49,1.25,1.74l4.27,1.46c1.56,.53,2.6,1.99,2.6,3.64v3.17Z"/></g><g><path class="b" d="M34.94,32.78c-3.12,0-5.66-2.54-5.66-5.66v-3.48c0-3.12,2.54-5.66,5.66-5.66s5.66,2.54,5.66,5.66v3.48c0,3.12-2.54,5.66-5.66,5.66Zm0-12.8c-2.02,0-3.66,1.64-3.66,3.66v3.48c0,2.02,1.64,3.66,3.66,3.66s3.66-1.64,3.66-3.66v-3.48c0-2.02-1.64-3.66-3.66-3.66Z"/><path class="b" d="M25.13,42.69h-2v-3.17c0-1.64,1.05-3.11,2.6-3.64l4.26-1.46c.75-.25,1.25-.96,1.25-1.74v-1.45h2v1.45c0,1.64-1.05,3.11-2.6,3.64l-4.26,1.46c-.75,.25-1.25,.96-1.25,1.74v3.17Z"/></g></g></g><path class="b" d="M76.73,80.58h-23.15c-1.92,0-3.47-1.56-3.47-3.47v-23.15c0-1.92,1.56-3.47,3.47-3.47h23.15c1.92,0,3.47,1.56,3.47,3.47v23.15c0,1.92-1.56,3.47-3.47,3.47Zm-23.15-28.1c-.81,0-1.47,.66-1.47,1.47v23.15c0,.81,.66,1.47,1.47,1.47h23.15c.81,0,1.47-.66,1.47-1.47v-23.15c0-.81-.66-1.47-1.47-1.47h-23.15Z"/></svg>