<?xml version="1.0" encoding="UTF-8"?><svg id="a" xmlns="http://www.w3.org/2000/svg" viewBox="0 0 100 100"><defs><style>.b{fill:#333;}.c{fill:#4078ff;}</style></defs><path class="c" d="M70.36,14.91H29.64c-1.66,0-3,1.34-3,3v22.65h46.72V17.91c0-1.66-1.34-3-3-3Zm-30.11,19.96h-5.51c-.73,0-1.32-.59-1.32-1.32s.59-1.32,1.32-1.32h5.51c.73,0,1.32,.59,1.32,1.32s-.59,1.32-1.32,1.32Zm7.95,0h-2.71c-.73,0-1.32-.59-1.32-1.32s.59-1.32,1.32-1.32h2.71c.73,0,1.32,.59,1.32,1.32s-.59,1.32-1.32,1.32Zm17.05-5.81h-30.51c-.73,0-1.32-.59-1.32-1.32s.59-1.32,1.32-1.32h30.51c.73,0,1.32,.59,1.32,1.32s-.59,1.32-1.32,1.32Zm1.32-7.13c0,.73-.59,1.32-1.32,1.32h-30.51c-.73,0-1.32-.59-1.32-1.32h0c0-.73,.59-1.32,1.32-1.32h30.51c.73,0,1.32,.59,1.32,1.32h0Z"/><g><path class="b" d="M77.92,86.09H22.08c-2.72,0-4.93-2.21-4.93-4.93V44.5c0-2.72,2.21-4.93,4.93-4.93h55.83c2.72,0,4.93,2.21,4.93,4.93v36.66c0,2.72-2.21,4.93-4.93,4.93ZM22.08,41.56c-1.62,0-2.93,1.32-2.93,2.93v36.66c0,1.62,1.32,2.93,2.93,2.93h55.83c1.62,0,2.93-1.32,2.93-2.93V44.5c0-1.62-1.32-2.93-2.93-2.93H22.08Z"/><polygon class="b" points="50 67.91 23.95 46.85 25.21 45.29 50 65.34 74.8 45.29 76.06 46.85 50 67.91"/><rect class="c" x="22.15" y="71.7" width="21.86" height="2" transform="translate(-38.37 36.99) rotate(-38.97)"/><rect class="c" x="65.93" y="61.77" width="2" height="21.86" transform="translate(-31.69 79.05) rotate(-51.05)"/></g><path class="b" d="M74.36,41.56H25.64V17.91c0-2.21,1.79-4,4-4h40.72c2.21,0,4,1.79,4,4v23.65Zm-46.72-2h44.72V17.91c0-1.1-.9-2-2-2H29.64c-1.1,0-2,.9-2,2v21.65Z"/></svg>