<?xml version="1.0" encoding="UTF-8"?><svg id="a" xmlns="http://www.w3.org/2000/svg" viewBox="0 0 100 100"><defs><style>.b{fill:#333;}.c{fill:#4078ff;}</style></defs><path class="c" d="M50.5,71.73v10.07c0,1.82,1.47,3.29,3.29,3.29h10.92c1.82,0,3.29-1.47,3.29-3.29v-10.07h-17.5Zm6.23,8.93c0,.64-.52,1.17-1.17,1.17h-.19c-.64,0-1.17-.52-1.17-1.17v-5.08c0-.64,.52-1.17,1.17-1.17h.19c.64,0,1.17,.52,1.17,1.17v5.08Z"/><g><path class="b" d="M68.99,72.73h-18.5v-2h16.52c.23-4.86,2.16-9.5,5.49-13.15,3.01-3.3,4.66-7.58,4.66-12.04,0-4.97-1.98-9.58-5.59-13-3.6-3.42-8.33-5.16-13.3-4.89-5.31,.28-10.21,2.95-13.44,7.32l-1.61-1.19c3.58-4.86,9.03-7.82,14.94-8.13,5.53-.29,10.78,1.64,14.79,5.44,4.01,3.8,6.21,8.93,6.21,14.45,0,4.96-1.84,9.72-5.18,13.39-3.22,3.53-4.99,8.08-4.99,12.81v1Z"/><path class="b" d="M64.71,86.09h-10.93c-2.36,0-4.29-1.92-4.29-4.29v-11.08h19.5v11.08c0,2.36-1.92,4.29-4.29,4.29Zm-13.21-13.36v9.08c0,1.26,1.03,2.29,2.29,2.29h10.93c1.26,0,2.29-1.03,2.29-2.29v-9.08h-15.5Z"/><rect class="b" x="58.24" y="14.93" width="2" height="6.74"/><rect class="b" x="38.99" y="22.9" width="2" height="6.74" transform="translate(-6.87 35.97) rotate(-45)"/><rect class="b" x="83.1" y="44.53" width="6.74" height="2"/><rect class="b" x="75.13" y="25.27" width="6.74" height="2" transform="translate(4.41 63.2) rotate(-45)"/><path class="b" d="M40.61,71.05c-4.38,0-8.76-1.67-12.09-5-3.23-3.23-5.01-7.52-5.01-12.09s1.78-8.86,5.01-12.09c6.67-6.67,17.51-6.67,24.18,0,6.67,6.67,6.67,17.51,0,24.18h0c-3.33,3.33-7.71,5-12.09,5Zm0-32.18c-3.87,0-7.73,1.47-10.67,4.41-2.85,2.85-4.42,6.64-4.42,10.67s1.57,7.82,4.42,10.67c5.89,5.88,15.46,5.88,21.35,0h0c5.89-5.89,5.89-15.46,0-21.35-2.94-2.94-6.81-4.41-10.67-4.41Z"/><path class="c" d="M40.61,65.63c-2.99,0-5.98-1.14-8.26-3.41-2.21-2.21-3.42-5.14-3.42-8.26s1.21-6.05,3.42-8.26c4.55-4.55,11.96-4.55,16.51,0s4.55,11.96,0,16.51c-2.28,2.28-5.27,3.41-8.26,3.41Zm0-21.34c-2.48,0-4.96,.94-6.84,2.83s-2.83,4.26-2.83,6.84,1.01,5.01,2.83,6.84c3.77,3.77,9.91,3.77,13.68,0s3.77-9.91,0-13.68c-1.89-1.89-4.36-2.83-6.84-2.83Z"/><path class="b" d="M13.51,85.42c-1.12,0-2.23-.42-3.08-1.27-1.7-1.7-1.7-4.46,0-6.16l7.81-7.81c.96-.96,2.52-.96,3.49,0l2.67,2.67c.47,.47,.72,1.08,.72,1.74s-.26,1.28-.72,1.74l-7.81,7.81c-.85,.85-1.96,1.27-3.08,1.27Zm6.48-13.96c-.12,0-.24,.05-.33,.14l-7.81,7.81c-.44,.45-.69,1.04-.69,1.67s.24,1.22,.69,1.66c.44,.45,1.04,.69,1.66,.69h0c.63,0,1.22-.25,1.66-.69l7.81-7.81c.12-.12,.14-.26,.14-.33s-.02-.21-.14-.33l-2.67-2.67c-.09-.09-.21-.14-.33-.14Z"/><rect class="b" x="23.88" y="66.56" width="6.27" height="2" transform="translate(-39.86 38.89) rotate(-45)"/></g></svg>