<?xml version="1.0" encoding="UTF-8"?><svg id="a" xmlns="http://www.w3.org/2000/svg" viewBox="0 0 100 100"><defs><style>.b{fill:#333;}.c{fill:#4078ff;}</style></defs><g><path class="b" d="M71.12,48.27h-4.5v-2h2.5v-.19c0-1.94,1.03-3.72,2.68-4.64l.21-.12c1.64-.98,3.7-.98,5.38-.01l.16,.1,1.95-3.38-.16-.09c-1.66-.96-2.69-2.78-2.68-4.76,0-2.03,1.02-3.85,2.68-4.81l.16-.09-1.95-3.38-.16,.09c-1.68,.97-3.74,.96-5.38-.02l-.21-.12c-1.66-.93-2.69-2.71-2.69-4.65v-.19h-6.18v-2h8.18v2.19c0,1.21,.64,2.32,1.66,2.9l.25,.15c1.03,.61,2.32,.61,3.37,0l1.9-1.1,3.95,6.85-1.89,1.09c-1.04,.6-1.68,1.76-1.68,3.02,0,1.32,.64,2.48,1.68,3.08l1.89,1.09-3.95,6.85-1.9-1.1c-1.05-.61-2.34-.61-3.36,0l-.26,.15c-1.03,.58-1.66,1.69-1.66,2.9v2.19Z"/><path class="b" d="M67.17,40.41c-.21,0-.42,0-.64-.03l.17-1.99c2.92,.26,5.46-1.9,5.72-4.8,.12-1.4-.31-2.77-1.21-3.85-.91-1.08-2.18-1.74-3.58-1.86h-1.01v-2h1.09c2.02,.17,3.78,1.09,5.03,2.57s1.84,3.37,1.67,5.31c-.33,3.78-3.52,6.64-7.24,6.64Z"/></g><g><path class="c" d="M58.27,20.25l-7.36-9.44c-.78-1-2.28-1-3.06,0l-7.36,9.44c-2.69,3.46-4.15,7.72-4.15,12.1v2.5h26.08v-2.5c0-4.38-1.46-8.64-4.15-12.1Zm-3.36,10.91h-11.05c-.73,0-1.32-.59-1.32-1.32s.59-1.32,1.32-1.32h11.05c.73,0,1.32,.59,1.32,1.32s-.59,1.32-1.32,1.32Z"/><g><path class="b" d="M72.63,60.88h-14.91v-2h12.84c-.45-3.01-2.88-4.84-4.96-5.87-2.58-1.29-4.18-3.89-4.18-6.81v-13.85c0-4.14-1.4-8.22-3.94-11.49l-7.36-9.44c-.36-.46-1.12-.46-1.48,0l-7.36,9.44c-2.54,3.27-3.94,7.35-3.94,11.49v13.85c0,2.92-1.6,5.52-4.18,6.81-2.08,1.03-4.51,2.86-4.96,5.87h12.84v2h-14.91v-1c0-3.67,2.12-6.67,6.14-8.67,1.87-.93,3.07-2.9,3.07-5.02v-13.85c0-4.58,1.55-9.1,4.36-12.71l7.36-9.44c.56-.72,1.41-1.13,2.32-1.13s1.76,.41,2.32,1.13l7.36,9.44c2.81,3.62,4.36,8.13,4.36,12.71v13.85c0,2.12,1.21,4.09,3.07,5.02,4.01,2,6.14,5,6.14,8.67v1Z"/><path class="b" d="M63.42,35.85h-28.08v-3.5c0-4.58,1.55-9.1,4.36-12.71l7.36-9.44c.56-.72,1.41-1.13,2.32-1.13s1.76,.41,2.32,1.13l7.36,9.44c2.81,3.62,4.36,8.13,4.36,12.71v3.5Zm-26.08-2h24.08v-1.5c0-4.14-1.4-8.22-3.94-11.49l-7.36-9.44c-.36-.46-1.12-.46-1.48,0l-7.36,9.44c-2.54,3.27-3.94,7.35-3.94,11.49v1.5Z"/><rect class="b" x="40.54" y="56.49" width="2" height="6.92"/><rect class="b" x="40.54" y="67.48" width="2" height="5.79"/><rect class="c" x="48.38" y="56.49" width="2" height="19.23"/><rect class="b" x="56.21" y="56.49" width="2" height="9.8"/><rect class="c" x="56.21" y="70.81" width="2" height="4.9"/></g><g><g><path class="b" d="M20.12,85.09h-2c0-4.56,3.71-8.26,8.26-8.26v2c-3.45,0-6.26,2.81-6.26,6.26Z"/><path class="b" d="M31.03,82.31c-3.34,0-6.05-2.71-6.05-6.05,0-3.01,2.22-5.52,5.11-5.98,.46-4.12,3.97-7.34,8.21-7.34v2c-3.45,0-6.26,2.81-6.26,6.26v1h-1c-2.24,0-4.05,1.82-4.05,4.05s1.82,4.05,4.05,4.05v2Z"/></g><g><path class="b" d="M80.64,85.09h-2c0-3.45-2.81-6.26-6.26-6.26v-2c4.56,0,8.26,3.71,8.26,8.26Z"/><path class="b" d="M67.72,82.31v-2c2.23,0,4.05-1.82,4.05-4.05s-1.82-4.05-4.05-4.05h-1v-1c0-3.45-2.81-6.26-6.26-6.26v-2c4.24,0,7.75,3.22,8.21,7.34,2.89,.46,5.1,2.96,5.1,5.98,0,3.34-2.71,6.05-6.05,6.05Z"/></g></g></g><path class="b" d="M49.38,51.58c-3.24,0-5.88-2.64-5.88-5.88s2.64-5.88,5.88-5.88,5.88,2.64,5.88,5.88-2.64,5.88-5.88,5.88Zm0-9.76c-2.14,0-3.88,1.74-3.88,3.88s1.74,3.88,3.88,3.88,3.88-1.74,3.88-3.88-1.74-3.88-3.88-3.88Z"/></svg>