<?xml version="1.0" encoding="UTF-8"?><svg id="a" xmlns="http://www.w3.org/2000/svg" viewBox="0 0 100 100"><defs><style>.b{fill:#333;}.c{fill:#4078ff;}</style></defs><path class="c" d="M38.78,39.28v13.14c0,6.2,5.02,11.22,11.22,11.22h0c6.2,0,11.22-5.02,11.22-11.22v-13.14h-22.44Zm15.53,15.33h-8.62c-.91,0-1.65-.74-1.65-1.65s.74-1.65,1.65-1.65h8.62c.91,0,1.65,.74,1.65,1.65s-.74,1.65-1.65,1.65Zm1.65-8.61c0,.91-.74,1.65-1.65,1.65h-8.62c-.91,0-1.65-.74-1.65-1.65h0c0-.91,.74-1.65,1.65-1.65h8.62c.91,0,1.65,.74,1.65,1.65h0Z"/><path class="b" d="M50,72.64c-11.15,0-20.22-9.07-20.22-20.22v-4.55h2v4.55c0,10.05,8.17,18.22,18.22,18.22s18.22-8.17,18.22-18.22v-4.55h2v4.55c0,11.15-9.07,20.22-20.22,20.22Z"/><path class="b" d="M62.22,39.28h-2v-13.14c0-5.64-4.58-10.22-10.22-10.22s-10.22,4.58-10.22,10.22v9.19h-2v-9.19c0-6.74,5.48-12.22,12.22-12.22s12.22,5.48,12.22,12.22v13.14Z"/><rect class="b" x="49" y="71.64" width="2" height="13.19"/><path class="b" d="M50,64.64c-6.74,0-12.22-5.48-12.22-12.22v-14.14h24.44v14.14c0,6.74-5.48,12.22-12.22,12.22Zm-10.22-24.36v12.14c0,5.64,4.58,10.22,10.22,10.22s10.22-4.58,10.22-10.22v-12.14h-20.44Z"/><g><rect class="b" x="68.22" y="30.62" width="2" height="11.44"/><rect class="c" x="76.74" y="22.72" width="2" height="27.24"/><rect class="b" x="85.25" y="27.75" width="2" height="17.18"/><rect class="c" x="93.77" y="33.4" width="2" height="5.88"/></g><g><rect class="b" x="29.78" y="30.62" width="2" height="11.44"/><rect class="c" x="21.26" y="22.72" width="2" height="27.24"/><rect class="b" x="12.75" y="27.75" width="2" height="17.18"/><rect class="c" x="4.23" y="33.4" width="2" height="5.88"/></g></svg>