<?xml version="1.0" encoding="UTF-8"?><svg id="a" xmlns="http://www.w3.org/2000/svg" viewBox="0 0 100 100"><defs><style>.b{fill:#333;}.c{fill:#4078ff;}</style></defs><g><path class="b" d="M39.49,78.65h-11.42v-16.97h11.42v16.97Zm-9.42-2h7.42v-12.97h-7.42v12.97Z"/><path class="b" d="M55.71,78.65h-11.42v-27.47h11.42v27.47Zm-9.42-2h7.42v-23.47h-7.42v23.47Z"/><g><rect class="c" x="61.51" y="39.32" width="9.42" height="38.33"/><path class="b" d="M71.94,78.65h-11.42V38.32h11.42v40.33Zm-9.42-2h7.42V40.32h-7.42v36.33Z"/></g></g><path class="b" d="M76.4,86.09H23.6c-2.53,0-4.59-2.06-4.59-4.59V29.94L35.03,13.91h41.38c2.53,0,4.59,2.06,4.59,4.59v62.98c0,2.53-2.06,4.59-4.59,4.59ZM21,30.77v50.73c0,1.43,1.16,2.59,2.59,2.59h52.81c1.43,0,2.59-1.16,2.59-2.59V18.51c0-1.43-1.16-2.59-2.59-2.59H35.85l-14.85,14.85Z"/><path class="c" d="M65.71,33.83c-3.98,0-7.22-3.24-7.22-7.22s3.24-7.22,7.22-7.22v2c-2.88,0-5.22,2.34-5.22,5.22s2.34,5.22,5.22,5.22,5.22-2.34,5.22-5.22h2c0,3.98-3.24,7.22-7.22,7.22Z"/><path class="b" d="M33.78,54.08c-2.71,0-4.92-2.21-4.92-4.92s2.21-4.92,4.92-4.92,4.92,2.21,4.92,4.92-2.21,4.92-4.92,4.92Zm0-7.83c-1.61,0-2.92,1.31-2.92,2.92s1.31,2.92,2.92,2.92,2.92-1.31,2.92-2.92-1.31-2.92-2.92-2.92Z"/><path class="b" d="M50,45.84c-2.71,0-4.92-2.21-4.92-4.92s2.21-4.92,4.92-4.92,4.92,2.21,4.92,4.92-2.21,4.92-4.92,4.92Zm0-7.83c-1.61,0-2.92,1.31-2.92,2.92s1.31,2.92,2.92,2.92,2.92-1.31,2.92-2.92-1.31-2.92-2.92-2.92Z"/><rect class="b" x="36.89" y="44.79" width="7.18" height="2" transform="translate(-16.24 23.04) rotate(-26.67)"/><rect class="b" x="51.62" y="34.44" width="7.7" height="2" transform="translate(-9.56 45.61) rotate(-41.46)"/><path class="b" d="M33.81,33.5h-9.97v-2h9.97c1.53,0,2.78-1.25,2.78-2.78v-9.97h2v9.97c0,2.64-2.14,4.78-4.78,4.78Z"/><polygon class="c" points="65.88 29.54 62.01 25.67 63.42 24.25 65.88 26.71 69.73 22.85 71.15 24.27 65.88 29.54"/></svg>